<svg width="21" height="20" viewBox="0 0 21 20" fill="none" xmlns="http://www.w3.org/2000/svg">
<path d="M10.0581 5.58063L11.6049 4.03383C11.924 3.71439 12.303 3.46095 12.7201 3.288C13.1372 3.11505 13.5843 3.02598 14.0359 3.02588C14.4874 3.02577 14.9346 3.11464 15.3518 3.28739C15.769 3.46014 16.148 3.7134 16.4673 4.0327C16.7866 4.352 17.0399 4.73107 17.2127 5.14827C17.3854 5.56548 17.4743 6.01263 17.4742 6.46418C17.4741 6.91573 17.385 7.36284 17.212 7.77996C17.0391 8.19708 16.7857 8.57604 16.4662 8.89519L14.2565 11.1049C13.9373 11.4241 13.5584 11.6773 13.1413 11.8501C12.7242 12.0228 12.2772 12.1117 11.8258 12.1117C11.3744 12.1117 10.9274 12.0228 10.5103 11.8501C10.0933 11.6773 9.71434 11.4241 9.39514 11.1049" stroke="#A8A29D" stroke-width="1.5" stroke-linecap="round" stroke-linejoin="round"/>
<path d="M10.9419 14.4194L9.39513 15.9662C9.07598 16.2856 8.69702 16.5391 8.2799 16.712C7.86278 16.885 7.41567 16.974 6.96412 16.9741C6.51256 16.9743 6.06541 16.8854 5.64821 16.7126C5.23101 16.5399 4.85193 16.2866 4.53264 15.9673C4.21334 15.648 3.96008 15.269 3.78733 14.8518C3.61458 14.4346 3.52571 13.9874 3.52582 13.5358C3.52592 13.0843 3.61499 12.6372 3.78794 12.2201C3.96089 11.8029 4.21433 11.424 4.53377 11.1048L6.74348 8.89513C7.06268 8.57593 7.44163 8.32272 7.85868 8.14997C8.27574 7.97722 8.72274 7.88831 9.17416 7.88831C9.62558 7.88831 10.0726 7.97722 10.4896 8.14997C10.9067 8.32272 11.2856 8.57593 11.6048 8.89513" stroke="#A8A29D" stroke-width="1.5" stroke-linecap="round" stroke-linejoin="round"/>
</svg>
