<svg width="50" height="50" viewBox="0 0 50 50" fill="none" xmlns="http://www.w3.org/2000/svg">
<path d="M31.304 22.5532C31.202 22.3771 30.8098 22.0289 30.1277 21.509C29.3863 20.9374 28.9351 20.7118 28.774 20.8322C28.4033 21.1115 28.0058 21.4294 27.5815 21.7861C27.1195 22.1772 26.7569 22.5039 26.4937 22.766C26.0048 23.2258 25.5644 23.6426 25.1723 24.0165C24.4363 24.7254 23.8294 25.3336 23.3513 25.8407C23.3191 25.8149 22.8974 25.5526 22.0863 25.0543C21.2966 24.5686 20.8965 24.3172 20.8856 24.3001C20.703 24.4247 20.3216 24.7749 19.7415 25.3507C19.1615 25.931 18.8713 26.2489 18.8713 26.3047L21.4819 28.5479C21.4873 28.5522 22.2098 29.1926 23.6494 30.4689C23.7084 30.5033 23.7595 30.5204 23.8024 30.5204C24.0495 30.1896 24.4283 29.719 24.9386 29.1087C25.6852 28.2279 26.4588 27.3662 27.2591 26.5239C27.807 25.9482 28.7041 25.0844 29.9504 23.9326C30.8851 23.0646 31.3362 22.6049 31.304 22.5532Z" fill="#74C449"/>
<path d="M14.0271 13.6685L11.9172 15.7798L9.45497 13.316L6.99273 15.7798L4.88281 13.6685L7.34506 11.2046L4.88281 8.74073L6.99273 6.62939L9.45497 9.09331L11.9172 6.62939L14.0271 8.74073L11.5649 11.2046L14.0271 13.6685Z" fill="#CCFBF1" fill-opacity="0.4"/>
<path d="M11.9172 6.62939L9.45498 9.09331L6.99273 6.62939L4.88281 8.74073L7.34508 11.2046L4.88281 13.6685L6.99273 15.7798L9.45498 13.316L11.9172 15.7798L14.0271 13.6685L11.5649 11.2046L14.0271 8.74073L11.9172 6.62939Z" fill="white"/>
<path d="M14.0271 27.8399L11.9172 29.9512L9.45498 27.4873L6.99273 29.9512L4.88281 27.8399L7.34506 25.3759L4.88281 22.912L6.99273 20.8008L9.45498 23.2647L11.9172 20.8008L14.0271 22.912L11.5649 25.3759L14.0271 27.8399Z" fill="#CCFBF1" fill-opacity="0.4"/>
<path d="M11.9172 20.8008L9.45497 23.2647L6.99273 20.8008L4.88281 22.912L7.34506 25.3759L4.88281 27.8398L6.99273 29.9512L9.45497 27.4873L11.9172 29.9512L14.0271 27.8398L11.5649 25.3759L14.0271 22.912L11.9172 20.8008Z" fill="white"/>
<path d="M29.4861 13.5821L27.3762 15.6935L24.914 13.2296L22.4518 15.6935L20.3418 13.5821L22.8042 11.1182L20.3418 8.6543L22.4518 6.54297L24.914 9.00689L27.3762 6.54297L29.4861 8.6543L27.0239 11.1182L29.4861 13.5821Z" fill="#CCFBF1" fill-opacity="0.4"/>
<path d="M27.3762 6.54297L24.914 9.00687L22.4518 6.54297L20.3418 8.65429L22.8042 11.1182L20.3418 13.5821L22.4518 15.6935L24.914 13.2295L27.3762 15.6935L29.4861 13.5821L27.0239 11.1182L29.4861 8.65429L27.3762 6.54297Z" fill="white"/>
<path d="M45.0293 13.5821L42.9193 15.6935L40.4571 13.2296L37.9949 15.6935L35.885 13.5821L38.3472 11.1182L35.885 8.6543L37.9949 6.54297L40.4571 9.00689L42.9193 6.54297L45.0293 8.6543L42.567 11.1182L45.0293 13.5821Z" fill="#CCFBF1" fill-opacity="0.4"/>
<path d="M42.9193 6.54297L40.4571 9.00687L37.9949 6.54297L35.885 8.65429L38.3472 11.1182L35.885 13.5821L37.9949 15.6935L40.4571 13.2295L42.9193 15.6935L45.0292 13.5821L42.567 11.1182L45.0292 8.65429L42.9193 6.54297Z" fill="white"/>
<path d="M5.66406 43.8477V34.668H12.1207V36.676H8.15706V38.2538H11.7262V40.2619H8.15706V43.8477H5.66406Z" fill="#74C449"/>
<path d="M19.9993 36.676V34.668H27.9805V36.676H25.2184V43.8477H22.7614V36.676H19.9993Z" fill="#74C449"/>
<path d="M40.1531 43.8477H36.6199V34.668H40.1172C41.0618 34.668 41.8779 34.8519 42.5654 35.2194C43.2558 35.5839 43.7879 36.1098 44.1617 36.7971C44.5382 37.4814 44.7265 38.3016 44.7265 39.2578C44.7265 40.2141 44.5397 41.0359 44.1661 41.7231C43.7925 42.4074 43.2633 42.9334 42.5788 43.3009C41.8943 43.6655 41.0857 43.8477 40.1531 43.8477ZM39.1128 41.7321H40.0635C40.5178 41.7321 40.9049 41.6588 41.2247 41.5124C41.5475 41.366 41.7927 41.1135 41.96 40.7549C42.1304 40.3963 42.2157 39.8973 42.2157 39.2578C42.2157 38.6184 42.1289 38.1194 41.9556 37.7607C41.7852 37.4021 41.534 37.1496 41.2022 37.0032C40.8735 36.8569 40.47 36.7837 39.9917 36.7837H39.1128V41.7321Z" fill="#74C449"/>
</svg>
